<?xml version="1.0" encoding="UTF-8" standalone="no"?>
<!-- Created with Inkscape (http://www.inkscape.org/) -->

<svg
   width="83.186249mm"
   height="87.986359mm"
   viewBox="0 0 83.186249 87.986359"
   version="1.1"
   id="svg5"
   xml:space="preserve"
   inkscape:version="1.2 (dc2aedaf03, 2022-05-15)"
   sodipodi:docname="logo.svg"
   xmlns:inkscape="http://www.inkscape.org/namespaces/inkscape"
   xmlns:sodipodi="http://sodipodi.sourceforge.net/DTD/sodipodi-0.dtd"
   xmlns="http://www.w3.org/2000/svg"
   xmlns:svg="http://www.w3.org/2000/svg"><sodipodi:namedview
     id="namedview7"
     pagecolor="#ffffff"
     bordercolor="#000000"
     borderopacity="0.25"
     inkscape:showpageshadow="2"
     inkscape:pageopacity="0.0"
     inkscape:pagecheckerboard="0"
     inkscape:deskcolor="#d1d1d1"
     inkscape:document-units="mm"
     showgrid="false"
     inkscape:zoom="0.50333193"
     inkscape:cx="209.60323"
     inkscape:cy="143.04676"
     inkscape:window-width="1366"
     inkscape:window-height="745"
     inkscape:window-x="-8"
     inkscape:window-y="-8"
     inkscape:window-maximized="1"
     inkscape:current-layer="layer1" /><defs
     id="defs2" /><g
     inkscape:label="Layer 1"
     inkscape:groupmode="layer"
     id="layer1"
     transform="translate(-31.096703,-111.23352)"><g
       id="g781"
       transform="translate(6.3079647,32.844788)" /><g
       id="g2035"><circle
         style="fill:#edd400;fill-opacity:0.882353;stroke-width:0.264583"
         id="path232"
         cx="62.788738"
         cy="122.38191"
         r="38"
         transform="translate(6.3079646,32.844788)" /><g
         id="g2022"
         transform="translate(7.8977487,34.406311)"><text
           xml:space="preserve"
           style="font-style:normal;font-variant:normal;font-weight:bold;font-stretch:normal;font-size:24.6145px;font-family:'Franklin Gothic Demi';-inkscape-font-specification:'Franklin Gothic Demi Bold';text-align:center;text-anchor:middle;fill:#0b0b0b;fill-opacity:1;stroke-width:0.170935"
           x="70.390297"
           y="123.83195"
           id="text617"
           transform="scale(0.87344986,1.1448854)"><tspan
             sodipodi:role="line"
             id="tspan615"
             style="font-style:normal;font-variant:normal;font-weight:bold;font-stretch:normal;font-family:'Franklin Gothic Demi';-inkscape-font-specification:'Franklin Gothic Demi Bold';fill:#0b0b0b;fill-opacity:1;stroke-width:0.170935"
             x="70.390297"
             y="123.83195">surge</tspan></text><path
           d="m 77.360225,114.45659 c 0,2.34534 -2.722898,4.24687 -6.024842,4.24687 -3.301941,0 -6.02484,-1.90153 -6.02484,-4.19909 0,-2.34533 2.722899,-4.19909 6.02484,-4.19909 0.714618,0 1.390593,0.10192 2.027919,0.26001 v -7.7345 l -16.218919,4.02921 -1.46e-4,11.04717 c -0.05687,2.34109 -2.72402,4.24156 -6.13873,4.24156 -3.414709,0 -6.024839,-1.90047 -6.024839,-4.24687 0,-2.34533 2.722898,-4.19909 6.024839,-4.19909 0.714618,0 1.390591,0.10193 2.027287,0.26001 v -12.27864 c 0,-0.68853 0.637327,-1.41368 1.419733,-1.62018 l 20.215841,-5.016081 c 0.221101,-0.04398 0.550535,-0.0791 0.721588,-0.0791 1.118809,0 2.025384,0.761251 2.027285,1.698216 z"
           id="path1055"
           style="fill:#0b0b0b;stroke-width:0.0579924" /></g><path
         id="circle669"
         style="fill:#edd400;fill-opacity:0.882353;stroke-width:0.264583"
         d="m 70.425159,111.23352 v 3.99511 a 40,40 0 0 1 39.858031,39.99807 40,40 0 0 1 -39.858031,39.99291 v 4.00027 A 44,44 0 0 0 114.28295,155.2267 44,44 0 0 0 70.425159,111.23352 Z" /></g></g></svg>
